<svg width="920" height="1080" viewBox="0 0 920 1080" fill="none" xmlns="http://www.w3.org/2000/svg">
<path opacity="0.1" fill-rule="evenodd" clip-rule="evenodd" d="M80.2683 2.67146e-05L222.282 0.000148066C262.416 5.38984e-05 308.725 40.1139 308.725 86.3992V132.684C308.611 149.865 324.161 163.541 341.141 163.541H608.188C747.114 163.541 920 314.739 920 495.251V748.278C920 893.304 782.617 1079.99 588.121 1079.99H328.792C175.973 1081.53 1.54372 934.961 0 751.363L2.31997e-10 427.367C18.2333 450.906 55.0127 485.657 106.51 514.146V742.106C106.51 865.533 214.564 973.532 338.054 973.532H575.772C714.698 973.532 813.49 854.733 813.49 735.935V506.051C815.034 382.624 697.718 268.454 591.208 268.454H290.201C250.067 268.454 203.758 223.712 203.758 182.055V128.056C203.758 117.256 191.41 104.913 180.604 104.913H129.665C117.316 104.913 106.51 115.713 106.51 128.056V182.055C104.967 276.168 200.671 364.11 288.658 364.11H586.577C654.497 364.11 714.698 416.567 714.698 492.166V749.82C714.698 828.505 648.322 876.333 588.121 876.333H330.336C265.503 876.333 203.758 817.705 203.758 749.82V552.454C235.935 560.385 271.068 564.607 308.725 563.136L308.725 743.649C308.725 755.991 319.53 769.877 334.967 769.877H583.49C598.926 769.877 609.732 759.077 609.732 743.649V498.337C609.732 482.909 598.926 470.566 581.946 470.566H308.725C269.196 470.566 234.369 465.224 203.758 455.889C164.873 444.031 132.79 425.73 106.51 403.754C30.6842 340.346 3.17737 246.342 2.52354e-10 188.226L0 81.7707C-6.15543e-10 44.7424 47.8521 0.000148066 80.2683 2.67146e-05Z" fill="white"/>
</svg>
