<svg width="430" height="255" viewBox="0 0 430 255" fill="none" xmlns="http://www.w3.org/2000/svg">
<path d="M48.32 251.36C46.5067 251.36 44.9067 251 43.52 250.28C42.1333 249.56 41.0533 248.547 40.28 247.24C39.5333 245.907 39.16 244.387 39.16 242.68L39.16 231.28C39.16 229.573 39.5333 228.08 40.28 226.8C41.0533 225.493 42.1333 224.48 43.52 223.76C44.9067 223.04 46.5067 222.68 48.32 222.68C50.1067 222.68 51.6933 223.04 53.08 223.76C54.4667 224.453 55.5333 225.44 56.28 226.72C57.0533 228 57.44 229.48 57.44 231.16V231.2C57.44 231.333 57.4 231.44 57.32 231.52C57.24 231.6 57.1467 231.64 57.04 231.64L55.72 231.72C55.4533 231.72 55.32 231.587 55.32 231.32V231.2C55.32 229.2 54.68 227.6 53.4 226.4C52.12 225.173 50.4267 224.56 48.32 224.56C46.1867 224.56 44.48 225.173 43.2 226.4C41.92 227.6 41.28 229.2 41.28 231.2L41.28 242.8C41.28 244.8 41.92 246.413 43.2 247.64C44.5067 248.867 46.2133 249.48 48.32 249.48C50.4267 249.48 52.12 248.867 53.4 247.64C54.68 246.413 55.32 244.8 55.32 242.8V242.72C55.32 242.48 55.4533 242.36 55.72 242.36L57.04 242.44C57.3067 242.44 57.44 242.56 57.44 242.8C57.44 244.48 57.0533 245.973 56.28 247.28C55.5333 248.56 54.4667 249.56 53.08 250.28C51.6933 251 50.1067 251.36 48.32 251.36ZM83.4969 251.32C81.6569 251.32 80.0302 250.947 78.6169 250.2C77.2302 249.427 76.1502 248.36 75.3769 247C74.6302 245.613 74.2569 244.027 74.2569 242.24V231.76C74.2569 229.973 74.6302 228.4 75.3769 227.04C76.1502 225.653 77.2302 224.587 78.6169 223.84C80.0302 223.067 81.6569 222.68 83.4969 222.68C85.3369 222.68 86.9635 223.067 88.3769 223.84C89.7902 224.587 90.8835 225.653 91.6569 227.04C92.4302 228.4 92.8169 229.973 92.8169 231.76V242.24C92.8169 244.027 92.4302 245.613 91.6569 247C90.8835 248.36 89.7902 249.427 88.3769 250.2C86.9635 250.947 85.3369 251.32 83.4969 251.32ZM83.4969 249.48C85.6569 249.48 87.3902 248.827 88.6969 247.52C90.0302 246.213 90.6969 244.48 90.6969 242.32V231.72C90.6969 229.587 90.0302 227.867 88.6969 226.56C87.3902 225.227 85.6569 224.56 83.4969 224.56C81.3635 224.56 79.6435 225.227 78.3369 226.56C77.0302 227.867 76.3769 229.587 76.3769 231.72V242.32C76.3769 244.48 77.0302 246.213 78.3369 247.52C79.6435 248.827 81.3635 249.48 83.4969 249.48ZM129.06 223.28C129.193 223.093 129.353 223 129.54 223H130.9C131.166 223 131.3 223.133 131.3 223.4V250.6C131.3 250.867 131.166 251 130.9 251H129.58C129.313 251 129.18 250.867 129.18 250.6V227.12C129.18 227.04 129.153 227 129.1 227C129.046 226.973 129.006 227 128.98 227.08L121.94 237.96C121.806 238.147 121.646 238.24 121.46 238.24H120.78C120.593 238.24 120.433 238.147 120.3 237.96L113.18 227.12C113.153 227.04 113.113 227.013 113.06 227.04C113.006 227.067 112.98 227.12 112.98 227.2V250.6C112.98 250.867 112.846 251 112.58 251H111.26C110.993 251 110.86 250.867 110.86 250.6V223.4C110.86 223.133 110.993 223 111.26 223H112.66C112.846 223 113.006 223.093 113.14 223.28L120.98 235.28C121.006 235.307 121.046 235.32 121.1 235.32C121.153 235.32 121.193 235.307 121.22 235.28L129.06 223.28ZM150.693 251C150.426 251 150.293 250.867 150.293 250.6V223.4C150.293 223.133 150.426 223 150.693 223H152.013C152.279 223 152.413 223.133 152.413 223.4V250.6C152.413 250.867 152.279 251 152.013 251H150.693ZM188.285 223.4C188.285 223.133 188.418 223 188.685 223H190.005C190.272 223 190.405 223.133 190.405 223.4V250.6C190.405 250.867 190.272 251 190.005 251H188.685C188.498 251 188.338 250.907 188.205 250.72L173.725 227.24C173.698 227.16 173.658 227.133 173.605 227.16C173.552 227.16 173.525 227.2 173.525 227.28V250.6C173.525 250.867 173.392 251 173.125 251H171.805C171.538 251 171.405 250.867 171.405 250.6V223.4C171.405 223.133 171.538 223 171.805 223H173.165C173.352 223 173.512 223.093 173.645 223.28L188.085 246.76C188.112 246.84 188.152 246.88 188.205 246.88C188.258 246.853 188.285 246.8 188.285 246.72V223.4ZM217.593 251.32C215.78 251.32 214.18 250.96 212.793 250.24C211.407 249.52 210.327 248.52 209.553 247.24C208.807 245.933 208.433 244.44 208.433 242.76V231.24C208.433 229.533 208.807 228.04 209.553 226.76C210.327 225.453 211.407 224.453 212.793 223.76C214.18 223.04 215.78 222.68 217.593 222.68C219.38 222.68 220.953 223.04 222.313 223.76C223.7 224.453 224.767 225.427 225.513 226.68C226.287 227.933 226.673 229.373 226.673 231V231.56C226.673 231.827 226.54 231.96 226.273 231.96H224.953C224.687 231.96 224.553 231.827 224.553 231.56V231.04C224.553 229.12 223.913 227.56 222.633 226.36C221.353 225.16 219.673 224.56 217.593 224.56C215.487 224.56 213.78 225.173 212.473 226.4C211.193 227.6 210.553 229.187 210.553 231.16V242.84C210.553 244.813 211.193 246.413 212.473 247.64C213.78 248.84 215.5 249.44 217.633 249.44C219.713 249.44 221.38 248.867 222.633 247.72C223.913 246.547 224.553 245 224.553 243.08V239.04C224.553 238.933 224.5 238.88 224.393 238.88H218.153C217.887 238.88 217.753 238.747 217.753 238.48V237.4C217.753 237.133 217.887 237 218.153 237H226.273C226.54 237 226.673 237.133 226.673 237.4V242.6C226.673 245.293 225.847 247.427 224.193 249C222.54 250.547 220.34 251.32 217.593 251.32ZM271.252 251.32C268.318 251.32 265.998 250.667 264.292 249.36C262.585 248.027 261.732 246.253 261.732 244.04V242.72C261.732 242.453 261.865 242.32 262.132 242.32H263.372C263.638 242.32 263.772 242.453 263.772 242.72V243.92C263.772 245.573 264.452 246.907 265.812 247.92C267.172 248.933 269.038 249.44 271.412 249.44C273.625 249.44 275.318 248.987 276.492 248.08C277.665 247.147 278.252 245.867 278.252 244.24C278.252 243.253 277.985 242.4 277.452 241.68C276.945 240.933 276.145 240.24 275.052 239.6C273.985 238.96 272.465 238.227 270.492 237.4C268.412 236.52 266.838 235.787 265.772 235.2C264.732 234.613 263.892 233.88 263.252 233C262.612 232.093 262.292 230.933 262.292 229.52C262.292 227.333 263.038 225.653 264.532 224.48C266.052 223.28 268.145 222.68 270.812 222.68C273.718 222.68 275.998 223.347 277.652 224.68C279.305 226.013 280.132 227.8 280.132 230.04V230.96C280.132 231.227 279.998 231.36 279.732 231.36H278.412C278.145 231.36 278.012 231.227 278.012 230.96V230.16C278.012 228.48 277.372 227.133 276.092 226.12C274.812 225.08 273.012 224.56 270.692 224.56C268.665 224.56 267.105 224.987 266.012 225.84C264.918 226.667 264.372 227.867 264.372 229.44C264.372 230.507 264.625 231.373 265.132 232.04C265.638 232.707 266.358 233.293 267.292 233.8C268.252 234.28 269.718 234.92 271.692 235.72C273.665 236.52 275.252 237.293 276.452 238.04C277.678 238.76 278.638 239.613 279.332 240.6C280.025 241.587 280.372 242.773 280.372 244.16C280.372 246.32 279.572 248.053 277.972 249.36C276.372 250.667 274.132 251.32 271.252 251.32ZM305.933 251.32C304.093 251.32 302.466 250.947 301.053 250.2C299.666 249.427 298.586 248.36 297.813 247C297.066 245.613 296.693 244.027 296.693 242.24V231.76C296.693 229.973 297.066 228.4 297.813 227.04C298.586 225.653 299.666 224.587 301.053 223.84C302.466 223.067 304.093 222.68 305.933 222.68C307.773 222.68 309.399 223.067 310.813 223.84C312.226 224.587 313.319 225.653 314.093 227.04C314.866 228.4 315.253 229.973 315.253 231.76V242.24C315.253 244.027 314.866 245.613 314.093 247C313.319 248.36 312.226 249.427 310.813 250.2C309.399 250.947 307.773 251.32 305.933 251.32ZM305.933 249.48C308.093 249.48 309.826 248.827 311.133 247.52C312.466 246.213 313.133 244.48 313.133 242.32V231.72C313.133 229.587 312.466 227.867 311.133 226.56C309.826 225.227 308.093 224.56 305.933 224.56C303.799 224.56 302.079 225.227 300.773 226.56C299.466 227.867 298.813 229.587 298.813 231.72V242.32C298.813 244.48 299.466 246.213 300.773 247.52C302.079 248.827 303.799 249.48 305.933 249.48ZM341.616 251.32C339.776 251.32 338.149 250.947 336.736 250.2C335.349 249.427 334.269 248.36 333.496 247C332.749 245.613 332.376 244.027 332.376 242.24V231.76C332.376 229.973 332.749 228.4 333.496 227.04C334.269 225.653 335.349 224.587 336.736 223.84C338.149 223.067 339.776 222.68 341.616 222.68C343.456 222.68 345.082 223.067 346.496 223.84C347.909 224.587 349.002 225.653 349.776 227.04C350.549 228.4 350.936 229.973 350.936 231.76V242.24C350.936 244.027 350.549 245.613 349.776 247C349.002 248.36 347.909 249.427 346.496 250.2C345.082 250.947 343.456 251.32 341.616 251.32ZM341.616 249.48C343.776 249.48 345.509 248.827 346.816 247.52C348.149 246.213 348.816 244.48 348.816 242.32V231.72C348.816 229.587 348.149 227.867 346.816 226.56C345.509 225.227 343.776 224.56 341.616 224.56C339.482 224.56 337.762 225.227 336.456 226.56C335.149 227.867 334.496 229.587 334.496 231.72V242.32C334.496 244.48 335.149 246.213 336.456 247.52C337.762 248.827 339.482 249.48 341.616 249.48ZM385.858 223.4C385.858 223.133 385.992 223 386.258 223H387.578C387.845 223 387.978 223.133 387.978 223.4V250.6C387.978 250.867 387.845 251 387.578 251H386.258C386.072 251 385.912 250.907 385.778 250.72L371.298 227.24C371.272 227.16 371.232 227.133 371.178 227.16C371.125 227.16 371.098 227.2 371.098 227.28V250.6C371.098 250.867 370.965 251 370.698 251H369.378C369.112 251 368.978 250.867 368.978 250.6V223.4C368.978 223.133 369.112 223 369.378 223H370.738C370.925 223 371.085 223.093 371.218 223.28L385.658 246.76C385.685 246.84 385.725 246.88 385.778 246.88C385.832 246.853 385.858 246.8 385.858 246.72V223.4Z" fill="white"/>
<path fill-rule="evenodd" clip-rule="evenodd" d="M25.4307 0L42.116 1.42639e-05C46.8313 3.19525e-06 52.272 4.71506 52.272 10.1555V15.596C52.2589 17.6154 54.0859 19.2229 56.0808 19.2229H87.4563C103.779 19.2229 124.091 36.995 124.091 58.2126V87.954C124.091 105.001 107.95 126.944 85.0986 126.944H54.6297C36.6751 127.125 16.1814 109.897 16 88.3168V50.2335V22.1245V9.61147C16 5.25912 21.6222 1.42639e-05 25.4307 0ZM39.9396 88.1352V53.5862C35.3709 52.1923 31.6015 50.0411 28.5139 47.4579V87.2285C28.5139 101.736 41.2092 114.431 55.7182 114.431H83.6475C99.9702 114.431 111.577 100.467 111.577 86.503V59.4821C111.759 44.9745 97.9752 31.5545 85.4613 31.5545H50.0959C45.3805 31.5545 39.9396 26.2955 39.9396 21.3991V15.0519C39.9396 13.7824 38.4887 12.3317 37.2192 12.3317H31.2343C29.7834 12.3317 28.5139 13.6011 28.5139 15.0519V21.3991C28.3325 32.4615 39.5769 42.7983 49.9143 42.7983H84.9171C92.8971 42.7983 99.9702 48.9641 99.9702 57.8502V88.1352C99.9702 97.3842 92.1717 103.006 85.0986 103.006H54.8112C47.1941 103.006 39.9396 96.1147 39.9396 88.1352ZM84.3729 55.3113C86.3679 55.3113 87.6375 56.762 87.6375 58.5754V87.4097C87.6375 89.2235 86.3679 90.4929 84.5544 90.4929H55.3555C53.5416 90.4929 52.272 88.8607 52.272 87.4097V66.1921V55.3113H84.3729Z" fill="white"/>
<path d="M155.621 32.5254C155.461 32.6053 155.461 32.6851 155.621 32.765C158.154 34.069 159.42 36.2383 159.42 39.2725C159.42 41.8542 158.54 43.8104 156.781 45.1413C155.021 46.4454 152.716 47.0976 149.863 47.0976H139.506C139.373 47.0976 139.253 47.0577 139.146 46.9778C139.066 46.8715 139.026 46.7517 139.026 46.6185V19.63C139.026 19.4969 139.066 19.3905 139.146 19.3106C139.253 19.2042 139.373 19.1509 139.506 19.1509H149.543C155.861 19.1509 159.02 21.7061 159.02 26.8163C159.02 29.4779 157.887 31.381 155.621 32.5254ZM144.865 23.9817C144.731 23.9817 144.665 24.0482 144.665 24.1813V30.4094C144.665 30.5425 144.731 30.6091 144.865 30.6091H149.543C150.796 30.6091 151.769 30.3163 152.462 29.7307C153.155 29.1452 153.502 28.3467 153.502 27.3353C153.502 26.2973 153.155 25.4855 152.462 24.9C151.769 24.2878 150.796 23.9817 149.543 23.9817H144.865ZM149.863 42.2269C151.089 42.2269 152.049 41.9209 152.742 41.3086C153.435 40.6699 153.782 39.805 153.782 38.7136C153.782 37.6222 153.435 36.7707 152.742 36.1585C152.049 35.5197 151.076 35.2003 149.823 35.2003H144.865C144.731 35.2003 144.665 35.2667 144.665 35.3999V42.0273C144.665 42.1605 144.731 42.2269 144.865 42.2269H149.863ZM164.303 47.0976C164.17 47.0976 164.05 47.0577 163.943 46.9778C163.863 46.8715 163.823 46.7517 163.823 46.6185V19.63C163.823 19.4969 163.863 19.3905 163.943 19.3106C164.05 19.2042 164.17 19.1509 164.303 19.1509H168.982C169.115 19.1509 169.222 19.2042 169.302 19.3106C169.408 19.3905 169.461 19.4969 169.461 19.63V42.0672C169.461 42.2004 169.528 42.2668 169.661 42.2668H182.737C182.871 42.2668 182.977 42.3202 183.057 42.4265C183.164 42.5064 183.217 42.6127 183.217 42.7459V46.6185C183.217 46.7517 183.164 46.8715 183.057 46.9778C182.977 47.0577 182.871 47.0976 182.737 47.0976H164.303ZM187.187 47.0976C187.053 47.0976 186.933 47.0577 186.827 46.9778C186.747 46.8715 186.707 46.7517 186.707 46.6185V19.63C186.707 19.4969 186.747 19.3905 186.827 19.3106C186.933 19.2042 187.053 19.1509 187.187 19.1509H191.865C191.998 19.1509 192.105 19.2042 192.185 19.3106C192.292 19.3905 192.345 19.4969 192.345 19.63V46.6185C192.345 46.7517 192.292 46.8715 192.185 46.9778C192.105 47.0577 191.998 47.0976 191.865 47.0976H187.187ZM213.286 19.63C213.286 19.4969 213.326 19.3905 213.406 19.3106C213.513 19.2042 213.633 19.1509 213.766 19.1509H218.445C218.578 19.1509 218.684 19.2042 218.764 19.3106C218.871 19.3905 218.924 19.4969 218.924 19.63V46.6185C218.924 46.7517 218.871 46.8715 218.764 46.9778C218.684 47.0577 218.578 47.0976 218.445 47.0976H213.926C213.659 47.0976 213.473 46.9912 213.366 46.7782L203.009 29.6908C202.956 29.611 202.903 29.5844 202.849 29.611C202.796 29.611 202.769 29.6642 202.769 29.7707L202.849 46.6185C202.849 46.7517 202.796 46.8715 202.689 46.9778C202.61 47.0577 202.503 47.0976 202.37 47.0976H197.691C197.558 47.0976 197.438 47.0577 197.331 46.9778C197.251 46.8715 197.211 46.7517 197.211 46.6185V19.63C197.211 19.4969 197.251 19.3905 197.331 19.3106C197.438 19.2042 197.558 19.1509 197.691 19.1509H202.21C202.476 19.1509 202.663 19.2574 202.769 19.4703L213.086 36.4779C213.14 36.5577 213.193 36.5976 213.246 36.5976C213.3 36.5711 213.326 36.5044 213.326 36.398L213.286 19.63ZM233.641 47.417C231.562 47.417 229.736 47.0178 228.163 46.2193C226.59 45.3943 225.377 44.2496 224.524 42.7858C223.671 41.3221 223.245 39.6318 223.245 37.7155V28.4931C223.245 26.5768 223.671 24.8866 224.524 23.4228C225.377 21.9589 226.59 20.8277 228.163 20.0293C229.736 19.2308 231.562 18.8315 233.641 18.8315C235.694 18.8315 237.494 19.2175 239.04 19.9893C240.613 20.7346 241.825 21.8125 242.678 23.2232C243.558 24.6072 243.998 26.2174 243.998 28.0539C243.998 28.2935 243.838 28.4399 243.518 28.4931L238.84 28.7726H238.76C238.493 28.7726 238.36 28.6262 238.36 28.3334C238.36 26.9228 237.92 25.7916 237.04 24.9399C236.187 24.0882 235.054 23.6623 233.641 23.6623C232.202 23.6623 231.042 24.0882 230.162 24.9399C229.309 25.7916 228.883 26.9228 228.883 28.3334V37.955C228.883 39.339 229.309 40.4568 230.162 41.3086C231.042 42.1605 232.202 42.5862 233.641 42.5862C235.054 42.5862 236.187 42.1605 237.04 41.3086C237.92 40.4568 238.36 39.339 238.36 37.955C238.36 37.6622 238.52 37.5159 238.84 37.5159L243.518 37.7155C243.652 37.7155 243.758 37.7554 243.838 37.8353C243.945 37.9151 243.998 38.0084 243.998 38.1147C243.998 39.9512 243.558 41.5747 242.678 42.9854C241.825 44.3962 240.613 45.4872 239.04 46.2592C237.494 47.0312 235.694 47.417 233.641 47.417ZM158.34 59.0747C158.474 59.0747 158.58 59.1281 158.66 59.2344C158.767 59.3143 158.82 59.4206 158.82 59.5538V63.4664C158.82 63.5995 158.767 63.7193 158.66 63.8257C158.58 63.9055 158.474 63.9454 158.34 63.9454H151.183C151.049 63.9454 150.983 64.0119 150.983 64.1451V86.5423C150.983 86.6755 150.929 86.7953 150.823 86.9016C150.743 86.9815 150.636 87.0214 150.503 87.0214H145.824C145.691 87.0214 145.571 86.9815 145.464 86.9016C145.384 86.7953 145.344 86.6755 145.344 86.5423V64.1451C145.344 64.0119 145.278 63.9454 145.144 63.9454H138.187C138.053 63.9454 137.933 63.9055 137.827 63.8257C137.747 63.7193 137.707 63.5995 137.707 63.4664V59.5538C137.707 59.4206 137.747 59.3143 137.827 59.2344C137.933 59.1281 138.053 59.0747 138.187 59.0747H158.34ZM181.851 63.4264C181.851 63.5596 181.798 63.6794 181.691 63.7857C181.611 63.8656 181.505 63.9055 181.371 63.9055H168.256C168.122 63.9055 168.056 63.972 168.056 64.1051V70.2933C168.056 70.4265 168.122 70.4929 168.256 70.4929H176.853C176.986 70.4929 177.093 70.5463 177.173 70.6526C177.279 70.7325 177.333 70.8389 177.333 70.972V74.8446C177.333 74.9778 177.279 75.0976 177.173 75.204C177.093 75.2838 176.986 75.3237 176.853 75.3237H168.256C168.122 75.3237 168.056 75.3902 168.056 75.5233V81.991C168.056 82.1242 168.122 82.1906 168.256 82.1906H181.371C181.505 82.1906 181.611 82.244 181.691 82.3503C181.798 82.4302 181.851 82.5365 181.851 82.6697V86.5423C181.851 86.6755 181.798 86.7953 181.691 86.9016C181.611 86.9815 181.505 87.0214 181.371 87.0214H162.897C162.764 87.0214 162.644 86.9815 162.537 86.9016C162.457 86.7953 162.417 86.6755 162.417 86.5423V59.5538C162.417 59.4206 162.457 59.3143 162.537 59.2344C162.644 59.1281 162.764 59.0747 162.897 59.0747H181.371C181.505 59.0747 181.611 59.1281 181.691 59.2344C181.798 59.3143 181.851 59.4206 181.851 59.5538V63.4264ZM195.606 87.3408C193.527 87.3408 191.701 86.9416 190.128 86.1431C188.555 85.3181 187.342 84.1734 186.489 82.7096C185.636 81.2459 185.21 79.5557 185.21 77.6393V68.4169C185.21 66.5006 185.636 64.8104 186.489 63.3466C187.342 61.8828 188.555 60.7515 190.128 59.9531C191.701 59.1546 193.527 58.7553 195.606 58.7553C197.659 58.7553 199.459 59.1412 201.005 59.9131C202.578 60.6583 203.79 61.7362 204.644 63.147C205.523 64.5309 205.963 66.1413 205.963 67.9777C205.963 68.2173 205.803 68.3636 205.483 68.4169L200.805 68.6964H200.725C200.458 68.6964 200.325 68.5501 200.325 68.2572C200.325 66.8465 199.885 65.7155 199.005 64.8637C198.152 64.0119 197.019 63.5861 195.606 63.5861C194.167 63.5861 193.007 64.0119 192.127 64.8637C191.274 65.7155 190.848 66.8465 190.848 68.2572V77.8789C190.848 79.2628 191.274 80.3806 192.127 81.2325C193.007 82.0843 194.167 82.51 195.606 82.51C197.019 82.51 198.152 82.0843 199.005 81.2325C199.885 80.3806 200.325 79.2628 200.325 77.8789C200.325 77.586 200.485 77.4397 200.805 77.4397L205.483 77.6393C205.617 77.6393 205.723 77.6792 205.803 77.7591C205.91 77.8389 205.963 77.9322 205.963 78.0385C205.963 79.875 205.523 81.4985 204.644 82.9093C203.79 84.32 202.578 85.411 201.005 86.183C199.459 86.955 197.659 87.3408 195.606 87.3408ZM224.973 59.5538C224.973 59.4206 225.013 59.3143 225.093 59.2344C225.2 59.1281 225.32 59.0747 225.453 59.0747H230.132C230.265 59.0747 230.371 59.1281 230.451 59.2344C230.558 59.3143 230.611 59.4206 230.611 59.5538V86.5423C230.611 86.6755 230.558 86.7953 230.451 86.9016C230.371 86.9815 230.265 87.0214 230.132 87.0214H225.453C225.32 87.0214 225.2 86.9815 225.093 86.9016C225.013 86.7953 224.973 86.6755 224.973 86.5423V75.5233C224.973 75.3902 224.907 75.3237 224.773 75.3237H215.936C215.803 75.3237 215.736 75.3902 215.736 75.5233V86.5423C215.736 86.6755 215.683 86.7953 215.576 86.9016C215.496 86.9815 215.39 87.0214 215.256 87.0214H210.578C210.444 87.0214 210.324 86.9815 210.218 86.9016C210.138 86.7953 210.098 86.6755 210.098 86.5423V59.5538C210.098 59.4206 210.138 59.3143 210.218 59.2344C210.324 59.1281 210.444 59.0747 210.578 59.0747H215.256C215.39 59.0747 215.496 59.1281 215.576 59.2344C215.683 59.3143 215.736 59.4206 215.736 59.5538V70.2933C215.736 70.4265 215.803 70.4929 215.936 70.4929H224.773C224.907 70.4929 224.973 70.4265 224.973 70.2933V59.5538ZM251.282 59.5538C251.282 59.4206 251.322 59.3143 251.402 59.2344C251.509 59.1281 251.628 59.0747 251.762 59.0747H256.44C256.574 59.0747 256.68 59.1281 256.76 59.2344C256.867 59.3143 256.92 59.4206 256.92 59.5538V86.5423C256.92 86.6755 256.867 86.7953 256.76 86.9016C256.68 86.9815 256.574 87.0214 256.44 87.0214H251.922C251.655 87.0214 251.469 86.915 251.362 86.702L241.005 69.6146C240.952 69.5348 240.899 69.5083 240.845 69.5348C240.792 69.5348 240.765 69.5881 240.765 69.6945L240.845 86.5423C240.845 86.6755 240.792 86.7953 240.685 86.9016C240.605 86.9815 240.499 87.0214 240.365 87.0214H235.687C235.554 87.0214 235.434 86.9815 235.327 86.9016C235.247 86.7953 235.207 86.6755 235.207 86.5423V59.5538C235.207 59.4206 235.247 59.3143 235.327 59.2344C235.434 59.1281 235.554 59.0747 235.687 59.0747H240.206C240.472 59.0747 240.659 59.1811 240.765 59.3941L251.082 76.4017C251.136 76.4815 251.189 76.5214 251.242 76.5214C251.295 76.4949 251.322 76.4282 251.322 76.3218L251.282 59.5538ZM271.757 87.4606C269.678 87.4606 267.838 87.0348 266.239 86.183C264.666 85.3312 263.44 84.1469 262.56 82.6298C261.68 81.0862 261.24 79.3161 261.24 77.3199V68.7762C261.24 66.8065 261.68 65.0633 262.56 63.5462C263.44 62.0291 264.666 60.8579 266.239 60.0329C267.838 59.1811 269.678 58.7553 271.757 58.7553C273.863 58.7553 275.703 59.1811 277.275 60.0329C278.875 60.8579 280.115 62.0291 280.994 63.5462C281.874 65.0633 282.314 66.8065 282.314 68.7762V77.3199C282.314 79.3161 281.874 81.0862 280.994 82.6298C280.115 84.1734 278.875 85.3711 277.275 86.2229C275.703 87.0479 273.863 87.4606 271.757 87.4606ZM271.757 82.6298C273.223 82.6298 274.41 82.1641 275.316 81.2325C276.222 80.3008 276.676 79.0632 276.676 77.5195V68.7363C276.676 67.1927 276.222 65.955 275.316 65.0234C274.436 64.0652 273.25 63.5861 271.757 63.5861C270.291 63.5861 269.105 64.0652 268.198 65.0234C267.319 65.955 266.879 67.1927 266.879 68.7363V77.5195C266.879 79.0632 267.319 80.3008 268.198 81.2325C269.105 82.1641 270.291 82.6298 271.757 82.6298ZM287.116 87.0214C286.983 87.0214 286.863 86.9815 286.756 86.9016C286.676 86.7953 286.636 86.6755 286.636 86.5423V59.5538C286.636 59.4206 286.676 59.3143 286.756 59.2344C286.863 59.1281 286.983 59.0747 287.116 59.0747H291.795C291.928 59.0747 292.035 59.1281 292.115 59.2344C292.221 59.3143 292.274 59.4206 292.274 59.5538V81.991C292.274 82.1242 292.341 82.1906 292.474 82.1906H305.55C305.684 82.1906 305.79 82.244 305.87 82.3503C305.977 82.4302 306.03 82.5365 306.03 82.6697V86.5423C306.03 86.6755 305.977 86.7953 305.87 86.9016C305.79 86.9815 305.684 87.0214 305.55 87.0214H287.116ZM319.164 87.4606C317.085 87.4606 315.245 87.0348 313.646 86.183C312.073 85.3312 310.847 84.1469 309.967 82.6298C309.087 81.0862 308.647 79.3161 308.647 77.3199V68.7762C308.647 66.8065 309.087 65.0633 309.967 63.5462C310.847 62.0291 312.073 60.8579 313.646 60.0329C315.245 59.1811 317.085 58.7553 319.164 58.7553C321.27 58.7553 323.11 59.1811 324.682 60.0329C326.282 60.8579 327.522 62.0291 328.401 63.5462C329.28 65.0633 329.72 66.8065 329.72 68.7762V77.3199C329.72 79.3161 329.28 81.0862 328.401 82.6298C327.522 84.1734 326.282 85.3711 324.682 86.2229C323.11 87.0479 321.27 87.4606 319.164 87.4606ZM319.164 82.6298C320.63 82.6298 321.817 82.1641 322.723 81.2325C323.629 80.3008 324.083 79.0632 324.083 77.5195V68.7363C324.083 67.1927 323.629 65.955 322.723 65.0234C321.843 64.0652 320.657 63.5861 319.164 63.5861C317.698 63.5861 316.512 64.0652 315.605 65.0234C314.726 65.955 314.286 67.1927 314.286 68.7363V77.5195C314.286 79.0632 314.726 80.3008 315.605 81.2325C316.512 82.1641 317.698 82.6298 319.164 82.6298ZM343.881 87.3408C341.829 87.3408 340.014 86.9281 338.443 86.1032C336.868 85.2782 335.643 84.1335 334.762 82.6697C333.91 81.1791 333.485 79.4624 333.485 77.5195V68.5766C333.485 66.6338 333.91 64.917 334.762 63.4264C335.643 61.9358 336.868 60.7915 338.443 59.993C340.014 59.168 341.829 58.7553 343.881 58.7553C345.906 58.7553 347.693 59.1546 349.239 59.9531C350.81 60.7515 352.026 61.8429 352.879 63.2268C353.756 64.5842 354.197 66.1013 354.197 67.7781V68.0576C354.197 68.1908 354.144 68.3106 354.038 68.4169C353.956 68.4968 353.85 68.5367 353.716 68.5367H349.039C348.905 68.5367 348.786 68.4968 348.68 68.4169C348.599 68.3106 348.558 68.1908 348.558 68.0576V67.9378C348.558 66.7136 348.133 65.6887 347.28 64.8637C346.428 64.0119 345.293 63.5861 343.881 63.5861C342.441 63.5861 341.282 64.0387 340.401 64.9435C339.548 65.8219 339.12 66.9797 339.12 68.4169V77.6792C339.12 79.1165 339.589 80.2877 340.52 81.1925C341.454 82.0709 342.641 82.51 344.081 82.51C345.465 82.51 346.571 82.1507 347.399 81.4321C348.227 80.6869 348.639 79.662 348.639 78.3579V76.5614C348.639 76.4282 348.571 76.3617 348.439 76.3617H343.96C343.828 76.3617 343.706 76.3218 343.6 76.242C343.519 76.1356 343.482 76.0158 343.482 75.8827V72.2097C343.482 72.0765 343.519 71.9701 343.6 71.8903C343.706 71.7839 343.828 71.7306 343.96 71.7306H353.716C353.85 71.7306 353.956 71.7839 354.038 71.8903C354.144 71.9701 354.197 72.0765 354.197 72.2097V77.4796C354.197 79.5023 353.769 81.259 352.916 82.7495C352.063 84.2401 350.851 85.3845 349.28 86.183C347.733 86.955 345.934 87.3408 343.881 87.3408ZM359.008 87.0214C358.874 87.0214 358.755 86.9815 358.649 86.9016C358.567 86.7953 358.527 86.6755 358.527 86.5423V59.5538C358.527 59.4206 358.567 59.3143 358.649 59.2344C358.755 59.1281 358.874 59.0747 359.008 59.0747H363.688C363.819 59.0747 363.925 59.1281 364.006 59.2344C364.113 59.3143 364.166 59.4206 364.166 59.5538V86.5423C364.166 86.6755 364.113 86.7953 364.006 86.9016C363.925 86.9815 363.819 87.0214 363.688 87.0214H359.008ZM388.467 63.4264C388.467 63.5596 388.414 63.6794 388.305 63.7857C388.227 63.8656 388.121 63.9055 387.986 63.9055H374.872C374.737 63.9055 374.672 63.972 374.672 64.1051V70.2933C374.672 70.4265 374.737 70.4929 374.872 70.4929H383.469C383.6 70.4929 383.706 70.5463 383.788 70.6526C383.894 70.7325 383.947 70.8389 383.947 70.972V74.8446C383.947 74.9778 383.894 75.0976 383.788 75.204C383.706 75.2838 383.6 75.3237 383.469 75.3237H374.872C374.737 75.3237 374.672 75.3902 374.672 75.5233V81.991C374.672 82.1242 374.737 82.1906 374.872 82.1906H387.986C388.121 82.1906 388.227 82.244 388.305 82.3503C388.414 82.4302 388.467 82.5365 388.467 82.6697V86.5423C388.467 86.6755 388.414 86.7953 388.305 86.9016C388.227 86.9815 388.121 87.0214 387.986 87.0214H369.511C369.38 87.0214 369.258 86.9815 369.152 86.9016C369.073 86.7953 369.033 86.6755 369.033 86.5423V59.5538C369.033 59.4206 369.073 59.3143 369.152 59.2344C369.258 59.1281 369.38 59.0747 369.511 59.0747H387.986C388.121 59.0747 388.227 59.1281 388.305 59.2344C388.414 59.3143 388.467 59.4206 388.467 59.5538V63.4264ZM401.982 87.3408C399.848 87.3408 397.983 87.008 396.384 86.3427C394.784 85.6506 393.544 84.6793 392.663 83.4283C391.81 82.1507 391.385 80.6735 391.385 78.9967V78.1184C391.385 77.9852 391.426 77.8788 391.504 77.799C391.61 77.6926 391.732 77.6393 391.863 77.6393H396.424C396.556 77.6393 396.662 77.6926 396.743 77.799C396.849 77.8788 396.902 77.9852 396.902 78.1184V78.7173C396.902 79.7818 397.396 80.6869 398.383 81.4321C399.37 82.1507 400.701 82.51 402.382 82.51C403.794 82.51 404.847 82.2171 405.54 81.6317C406.234 81.0194 406.58 80.2743 406.58 79.396C406.58 78.7572 406.368 78.2248 405.94 77.799C405.512 77.3464 404.928 76.9606 404.181 76.6412C403.46 76.2953 402.301 75.8293 400.701 75.2439C398.914 74.6316 397.396 74.0062 396.143 73.3675C394.915 72.7287 393.878 71.8638 393.025 70.7724C392.197 69.6546 391.785 68.2837 391.785 66.6603C391.785 65.0633 392.197 63.666 393.025 62.4683C393.85 61.2705 394.997 60.3523 396.462 59.7135C397.93 59.0747 399.623 58.7553 401.541 58.7553C403.569 58.7553 405.368 59.1147 406.94 59.8333C408.539 60.5519 409.779 61.5634 410.657 62.8675C411.566 64.1451 412.019 65.6357 412.019 67.339V67.9378C412.019 68.071 411.966 68.1908 411.857 68.2971C411.779 68.377 411.673 68.4169 411.538 68.4169H406.94C406.805 68.4169 406.687 68.377 406.58 68.2971C406.499 68.1908 406.459 68.071 406.459 67.9378V67.6184C406.459 66.5006 405.993 65.5558 405.059 64.7838C404.153 63.9854 402.9 63.5861 401.301 63.5861C400.048 63.5861 399.061 63.8522 398.342 64.3846C397.649 64.917 397.302 65.6488 397.302 66.5804C397.302 67.2457 397.502 67.8046 397.902 68.2572C398.33 68.7098 398.942 69.1221 399.742 69.4949C400.57 69.8408 401.835 70.3198 403.541 70.9321C405.434 71.6242 406.912 72.2362 407.98 72.7686C409.073 73.301 410.045 74.0995 410.898 75.164C411.779 76.2021 412.219 77.5595 412.219 79.2363C412.219 81.738 411.298 83.7211 409.458 85.1849C407.621 86.6222 405.128 87.3408 401.982 87.3408ZM148.863 127.265C146.784 127.265 144.958 126.865 143.385 126.067C141.812 125.242 140.599 124.097 139.746 122.633C138.893 121.17 138.467 119.479 138.467 117.563V108.341C138.467 106.424 138.893 104.734 139.746 103.27C140.599 101.807 141.812 100.675 143.385 99.8769C144.958 99.0784 146.784 98.6792 148.863 98.6792C150.916 98.6792 152.716 99.065 154.262 99.8369C155.835 100.582 157.047 101.66 157.9 103.071C158.78 104.455 159.22 106.065 159.22 107.902C159.22 108.141 159.06 108.287 158.74 108.341L154.062 108.62H153.982C153.715 108.62 153.582 108.474 153.582 108.181C153.582 106.77 153.142 105.639 152.262 104.787C151.409 103.936 150.276 103.51 148.863 103.51C147.424 103.51 146.264 103.936 145.384 104.787C144.531 105.639 144.105 106.77 144.105 108.181V117.803C144.105 119.187 144.531 120.304 145.384 121.156C146.264 122.008 147.424 122.434 148.863 122.434C150.276 122.434 151.409 122.008 152.262 121.156C153.142 120.304 153.582 119.187 153.582 117.803C153.582 117.51 153.742 117.363 154.062 117.363L158.74 117.563C158.874 117.563 158.98 117.603 159.06 117.683C159.167 117.763 159.22 117.856 159.22 117.962C159.22 119.799 158.78 121.422 157.9 122.833C157.047 124.244 155.835 125.335 154.262 126.107C152.716 126.879 150.916 127.265 148.863 127.265ZM173.312 127.384C171.232 127.384 169.393 126.959 167.793 126.107C166.22 125.255 164.994 124.071 164.114 122.554C163.235 121.01 162.795 119.24 162.795 117.244V108.7C162.795 106.73 163.235 104.987 164.114 103.47C164.994 101.953 166.22 100.782 167.793 99.9567C169.393 99.1049 171.232 98.6792 173.312 98.6792C175.417 98.6792 177.257 99.1049 178.83 99.9567C180.429 100.782 181.669 101.953 182.549 103.47C183.428 104.987 183.868 106.73 183.868 108.7V117.244C183.868 119.24 183.428 121.01 182.549 122.554C181.669 124.097 180.429 125.295 178.83 126.147C177.257 126.972 175.417 127.384 173.312 127.384ZM173.312 122.554C174.778 122.554 175.964 122.088 176.87 121.156C177.777 120.225 178.23 118.987 178.23 117.443V108.66C178.23 107.116 177.777 105.879 176.87 104.947C175.991 103.989 174.805 103.51 173.312 103.51C171.845 103.51 170.659 103.989 169.753 104.947C168.873 105.879 168.433 107.116 168.433 108.66V117.443C168.433 118.987 168.873 120.225 169.753 121.156C170.659 122.088 171.845 122.554 173.312 122.554ZM203.546 126.945C203.279 126.945 203.093 126.825 202.986 126.586L197.988 115.527C197.934 115.421 197.854 115.367 197.748 115.367H194.029C193.895 115.367 193.829 115.434 193.829 115.567V126.466C193.829 126.599 193.775 126.719 193.669 126.825C193.589 126.905 193.482 126.945 193.349 126.945H188.67C188.537 126.945 188.417 126.905 188.311 126.825C188.231 126.719 188.191 126.599 188.191 126.466V99.4776C188.191 99.3444 188.231 99.2381 188.311 99.1582C188.417 99.0519 188.537 98.9985 188.67 98.9985H200.107C201.813 98.9985 203.306 99.3444 204.585 100.037C205.892 100.729 206.891 101.713 207.585 102.991C208.304 104.268 208.664 105.746 208.664 107.422C208.664 109.232 208.211 110.789 207.305 112.094C206.398 113.371 205.132 114.276 203.506 114.808C203.372 114.862 203.332 114.955 203.386 115.088L208.824 126.386C208.878 126.493 208.904 126.572 208.904 126.626C208.904 126.839 208.758 126.945 208.464 126.945H203.546ZM194.029 103.829C193.895 103.829 193.829 103.896 193.829 104.029V110.856C193.829 110.989 193.895 111.056 194.029 111.056H199.267C200.387 111.056 201.293 110.723 201.986 110.057C202.706 109.392 203.066 108.527 203.066 107.462C203.066 106.398 202.706 105.533 201.986 104.867C201.293 104.175 200.387 103.829 199.267 103.829H194.029ZM224.31 98.9586C226.069 98.9586 227.615 99.3179 228.948 100.037C230.281 100.755 231.307 101.78 232.027 103.111C232.773 104.415 233.147 105.919 233.147 107.622C233.147 109.299 232.76 110.776 231.987 112.054C231.241 113.331 230.174 114.329 228.788 115.048C227.429 115.74 225.856 116.086 224.07 116.086H218.391C218.258 116.086 218.192 116.152 218.192 116.286V126.466C218.192 126.599 218.138 126.719 218.032 126.825C217.952 126.905 217.845 126.945 217.712 126.945H213.033C212.9 126.945 212.78 126.905 212.673 126.825C212.593 126.719 212.553 126.599 212.553 126.466V99.4377C212.553 99.3045 212.593 99.1982 212.673 99.1183C212.78 99.012 212.9 98.9586 213.033 98.9586H224.31ZM223.47 111.575C224.696 111.575 225.683 111.229 226.429 110.537C227.175 109.818 227.549 108.886 227.549 107.742C227.549 106.571 227.175 105.626 226.429 104.907C225.683 104.189 224.696 103.829 223.47 103.829H218.391C218.258 103.829 218.192 103.896 218.192 104.029V111.375C218.192 111.508 218.258 111.575 218.391 111.575H223.47ZM246.57 127.384C244.49 127.384 242.651 126.959 241.052 126.107C239.479 125.255 238.252 124.071 237.373 122.554C236.493 121.01 236.053 119.24 236.053 117.244V108.7C236.053 106.73 236.493 104.987 237.373 103.47C238.252 101.953 239.479 100.782 241.052 99.9567C242.651 99.1049 244.49 98.6792 246.57 98.6792C248.676 98.6792 250.515 99.1049 252.088 99.9567C253.688 100.782 254.927 101.953 255.807 103.47C256.687 104.987 257.126 106.73 257.126 108.7V117.244C257.126 119.24 256.687 121.01 255.807 122.554C254.927 124.097 253.688 125.295 252.088 126.147C250.515 126.972 248.676 127.384 246.57 127.384ZM246.57 122.554C248.036 122.554 249.222 122.088 250.129 121.156C251.035 120.225 251.488 118.987 251.488 117.443V108.66C251.488 107.116 251.035 105.879 250.129 104.947C249.249 103.989 248.063 103.51 246.57 103.51C245.104 103.51 243.917 103.989 243.011 104.947C242.131 105.879 241.691 107.116 241.691 108.66V117.443C241.691 118.987 242.131 120.225 243.011 121.156C243.917 122.088 245.104 122.554 246.57 122.554ZM276.804 126.945C276.538 126.945 276.351 126.825 276.244 126.586L271.246 115.527C271.192 115.421 271.112 115.367 271.006 115.367H267.287C267.154 115.367 267.087 115.434 267.087 115.567V126.466C267.087 126.599 267.034 126.719 266.927 126.825C266.847 126.905 266.741 126.945 266.607 126.945H261.929C261.795 126.945 261.675 126.905 261.569 126.825C261.489 126.719 261.449 126.599 261.449 126.466V99.4776C261.449 99.3444 261.489 99.2381 261.569 99.1582C261.675 99.0519 261.795 98.9985 261.929 98.9985H273.365C275.071 98.9985 276.564 99.3444 277.844 100.037C279.15 100.729 280.15 101.713 280.843 102.991C281.563 104.268 281.922 105.746 281.922 107.422C281.922 109.232 281.469 110.789 280.563 112.094C279.657 113.371 278.39 114.276 276.764 114.808C276.631 114.862 276.591 114.955 276.644 115.088L282.082 126.386C282.136 126.493 282.162 126.572 282.162 126.626C282.162 126.839 282.016 126.945 281.722 126.945H276.804ZM267.287 103.829C267.154 103.829 267.087 103.896 267.087 104.029V110.856C267.087 110.989 267.154 111.056 267.287 111.056H272.525C273.645 111.056 274.551 110.723 275.245 110.057C275.964 109.392 276.324 108.527 276.324 107.462C276.324 106.398 275.964 105.533 275.245 104.867C274.551 104.175 273.645 103.829 272.525 103.829H267.287ZM304.392 126.945C304.125 126.945 303.952 126.812 303.872 126.546L302.672 122.633C302.619 122.527 302.552 122.474 302.472 122.474H292.635C292.555 122.474 292.489 122.527 292.435 122.633L291.276 126.546C291.196 126.812 291.022 126.945 290.756 126.945H285.678C285.518 126.945 285.398 126.905 285.318 126.825C285.238 126.719 285.224 126.572 285.278 126.386L293.915 99.3978C293.995 99.1317 294.168 98.9985 294.435 98.9985H300.713C300.979 98.9985 301.153 99.1317 301.233 99.3978L309.87 126.386C309.896 126.44 309.91 126.506 309.91 126.586C309.91 126.825 309.763 126.945 309.47 126.945H304.392ZM293.875 117.883C293.848 118.042 293.901 118.122 294.035 118.122H301.073C301.233 118.122 301.286 118.042 301.233 117.883L297.634 106.025C297.607 105.919 297.567 105.879 297.514 105.905C297.46 105.905 297.42 105.945 297.394 106.025L293.875 117.883ZM329.302 98.9985C329.436 98.9985 329.542 99.0519 329.623 99.1582C329.73 99.2381 329.783 99.3444 329.783 99.4776V103.39C329.783 103.523 329.73 103.643 329.623 103.749C329.542 103.829 329.436 103.869 329.302 103.869H322.144C322.011 103.869 321.945 103.936 321.945 104.069V126.466C321.945 126.599 321.891 126.719 321.785 126.825C321.705 126.905 321.598 126.945 321.465 126.945H316.786C316.653 126.945 316.533 126.905 316.426 126.825C316.346 126.719 316.306 126.599 316.306 126.466V104.069C316.306 103.936 316.24 103.869 316.106 103.869H309.149C309.015 103.869 308.895 103.829 308.789 103.749C308.709 103.643 308.669 103.523 308.669 103.39V99.4776C308.669 99.3444 308.709 99.2381 308.789 99.1582C308.895 99.0519 309.015 98.9985 309.149 98.9985H329.302ZM333.86 126.945C333.725 126.945 333.606 126.905 333.5 126.825C333.419 126.719 333.378 126.599 333.378 126.466V99.4776C333.378 99.3444 333.419 99.2381 333.5 99.1582C333.606 99.0519 333.725 98.9985 333.86 98.9985H338.539C338.671 98.9985 338.777 99.0519 338.858 99.1582C338.964 99.2381 339.017 99.3444 339.017 99.4776V126.466C339.017 126.599 338.964 126.719 338.858 126.825C338.777 126.905 338.671 126.945 338.539 126.945H333.86ZM353.841 127.384C351.76 127.384 349.923 126.959 348.324 126.107C346.749 125.255 345.525 124.071 344.644 122.554C343.763 121.01 343.325 119.24 343.325 117.244V108.7C343.325 106.73 343.763 104.987 344.644 103.47C345.525 101.953 346.749 100.782 348.324 99.9567C349.923 99.1049 351.76 98.6792 353.841 98.6792C355.946 98.6792 357.786 99.1049 359.358 99.9567C360.957 100.782 362.198 101.953 363.079 103.47C363.956 104.987 364.397 106.73 364.397 108.7V117.244C364.397 119.24 363.956 121.01 363.079 122.554C362.198 124.097 360.957 125.295 359.358 126.147C357.786 126.972 355.946 127.384 353.841 127.384ZM353.841 122.554C355.306 122.554 356.493 122.088 357.399 121.156C358.305 120.225 358.758 118.987 358.758 117.443V108.66C358.758 107.116 358.305 105.879 357.399 104.947C356.521 103.989 355.334 103.51 353.841 103.51C352.376 103.51 351.189 103.989 350.283 104.947C349.402 105.879 348.961 107.116 348.961 108.66V117.443C348.961 118.987 349.402 120.225 350.283 121.156C351.189 122.088 352.376 122.554 353.841 122.554ZM384.794 99.4776C384.794 99.3444 384.834 99.2381 384.915 99.1582C385.022 99.0519 385.14 98.9985 385.275 98.9985H389.954C390.086 98.9985 390.192 99.0519 390.273 99.1582C390.379 99.2381 390.432 99.3444 390.432 99.4776V126.466C390.432 126.599 390.379 126.719 390.273 126.825C390.192 126.905 390.086 126.945 389.954 126.945H385.434C385.168 126.945 384.981 126.839 384.875 126.626L374.519 109.538C374.466 109.459 374.412 109.432 374.359 109.459C374.306 109.459 374.278 109.512 374.278 109.618L374.359 126.466C374.359 126.599 374.306 126.719 374.197 126.825C374.119 126.905 374.013 126.945 373.878 126.945H369.198C369.067 126.945 368.945 126.905 368.839 126.825C368.761 126.719 368.721 126.599 368.721 126.466V99.4776C368.721 99.3444 368.761 99.2381 368.839 99.1582C368.945 99.0519 369.067 98.9985 369.198 98.9985H373.719C373.984 98.9985 374.172 99.1049 374.278 99.3179L384.594 116.325C384.647 116.405 384.703 116.445 384.756 116.445C384.809 116.419 384.834 116.352 384.834 116.246L384.794 99.4776Z" fill="white"/>
<line y1="175.5" x2="430" y2="175.5" stroke="white"/>
</svg>
