<svg width="37" height="37" viewBox="0 0 37 37" fill="none" xmlns="http://www.w3.org/2000/svg">
<path d="M31.1758 18.3125C31.1758 11.4807 25.6326 5.9375 18.8008 5.9375C11.969 5.9375 6.42578 11.4807 6.42578 18.3125C6.42578 25.1443 11.969 30.6875 18.8008 30.6875C25.6326 30.6875 31.1758 25.1443 31.1758 18.3125ZM33.4258 18.3125C33.4258 26.3869 26.8752 32.9375 18.8008 32.9375C10.7263 32.9375 4.17578 26.3869 4.17578 18.3125C4.17578 10.2381 10.7263 3.6875 18.8008 3.6875C26.8752 3.6875 33.4258 10.2381 33.4258 18.3125Z" fill="#4C539F"/>
<path d="M10.1304 18.642C10.5424 18.2305 11.1946 18.2041 11.6363 18.5644L11.7212 18.642L15.0933 22.017L15.1709 22.1034C15.5305 22.5455 15.5037 23.1964 15.0918 23.6078C14.68 24.0192 14.0291 24.0455 13.5874 23.6855L13.501 23.6078L10.1304 20.2328L10.0528 20.1464C9.69301 19.7045 9.71881 19.0536 10.1304 18.642ZM25.9082 12.9892C26.3249 12.5998 26.9769 12.5825 27.4156 12.9657C27.8542 13.3491 27.9244 13.9977 27.5943 14.4628L27.5225 14.5522L19.6577 23.5522C19.4528 23.7867 19.159 23.927 18.8477 23.9374C18.5364 23.9478 18.2344 23.8281 18.0142 23.6078L14.6421 20.2328C14.2031 19.7933 14.2042 19.0811 14.6436 18.642C15.0831 18.2029 15.7953 18.2026 16.2344 18.642L18.7554 21.1645L25.8291 13.0727L25.9082 12.9892ZM21.4492 13.0727C21.858 12.6048 22.5678 12.557 23.0357 12.9657C23.5036 13.3745 23.5514 14.0843 23.1426 14.5522L19.5186 18.7006C19.1098 19.1685 18.3986 19.2163 17.9307 18.8075C17.4635 18.3988 17.4156 17.6888 17.8238 17.2211L21.4492 13.0727Z" fill="#4C539F"/>
</svg>
