<svg width="36" height="37" viewBox="0 0 36 37" fill="none" xmlns="http://www.w3.org/2000/svg">
<g id="react-icons/bs/BsFillGeoAltFill">
<path id="Vector" d="M18 36.5C18 36.5 31.5 23.7065 31.5 14C31.5 10.4196 30.0777 6.9858 27.5459 4.45406C25.0142 1.92232 21.5804 0.5 18 0.5C14.4196 0.5 10.9858 1.92232 8.45406 4.45406C5.92232 6.9858 4.5 10.4196 4.5 14C4.5 23.7065 18 36.5 18 36.5ZM18 20.75C16.2098 20.75 14.4929 20.0388 13.227 18.773C11.9612 17.5071 11.25 15.7902 11.25 14C11.25 12.2098 11.9612 10.4929 13.227 9.22703C14.4929 7.96116 16.2098 7.25 18 7.25C19.7902 7.25 21.5071 7.96116 22.773 9.22703C24.0388 10.4929 24.75 12.2098 24.75 14C24.75 15.7902 24.0388 17.5071 22.773 18.773C21.5071 20.0388 19.7902 20.75 18 20.75Z" fill="#4C539F"/>
</g>
</svg>
