<svg width="32" height="32" viewBox="0 0 32 32" fill="none" xmlns="http://www.w3.org/2000/svg">
<path fill-rule="evenodd" clip-rule="evenodd" d="M16 5C12.4101 5 9.5 7.91015 9.5 11.5C9.5 15.0899 12.4101 18 16 18C19.5899 18 22.5 15.0899 22.5 11.5C22.5 7.91015 19.5899 5 16 5ZM7.5 11.5C7.5 6.80558 11.3056 3 16 3C20.6944 3 24.5 6.80558 24.5 11.5C24.5 16.1944 20.6944 20 16 20C11.3056 20 7.5 16.1944 7.5 11.5Z" fill="#4C539F"/>
<path fill-rule="evenodd" clip-rule="evenodd" d="M21.5 14C17.9101 14 15 16.9101 15 20.5C15 24.0899 17.9101 27 21.5 27C25.0899 27 28 24.0899 28 20.5C28 16.9101 25.0899 14 21.5 14ZM13 20.5C13 15.8056 16.8056 12 21.5 12C26.1944 12 30 15.8056 30 20.5C30 25.1944 26.1944 29 21.5 29C16.8056 29 13 25.1944 13 20.5Z" fill="#4C539F"/>
<path fill-rule="evenodd" clip-rule="evenodd" d="M10.5 14C6.91015 14 4 16.9101 4 20.5C4 24.0899 6.91015 27 10.5 27C14.0899 27 17 24.0899 17 20.5C17 16.9101 14.0899 14 10.5 14ZM2 20.5C2 15.8056 5.80558 12 10.5 12C15.1944 12 19 15.8056 19 20.5C19 25.1944 15.1944 29 10.5 29C5.80558 29 2 25.1944 2 20.5Z" fill="#4C539F"/>
</svg>
