<svg width="32" height="32" viewBox="0 0 32 32" fill="none" xmlns="http://www.w3.org/2000/svg">
<path fill-rule="evenodd" clip-rule="evenodd" d="M3 15.5C3 8.59709 8.59709 3 15.5 3C22.4029 3 28 8.59709 28 15.5C28 22.4029 22.4029 28 15.5 28C8.59709 28 3 22.4029 3 15.5ZM15.5 5C9.70166 5 5 9.70166 5 15.5C5 21.2983 9.70166 26 15.5 26C21.2983 26 26 21.2983 26 15.5C26 9.70166 21.2983 5 15.5 5Z" fill="#4C539F"/>
<path fill-rule="evenodd" clip-rule="evenodd" d="M12.75 13.75C12.75 13.1977 13.1977 12.75 13.75 12.75H15.75C16.3023 12.75 16.75 13.1977 16.75 13.75V21C16.75 21.5523 16.3023 22 15.75 22C15.1977 22 14.75 21.5523 14.75 21V14.75H13.75C13.1977 14.75 12.75 14.3023 12.75 13.75Z" fill="#4C539F"/>
<path fill-rule="evenodd" clip-rule="evenodd" d="M12 21.25C12 20.6977 12.4477 20.25 13 20.25H18.5C19.0523 20.25 19.5 20.6977 19.5 21.25C19.5 21.8023 19.0523 22.25 18.5 22.25H13C12.4477 22.25 12 21.8023 12 21.25Z" fill="#4C539F"/>
<path d="M15.5 8.125C15.1786 8.125 14.8644 8.2203 14.5972 8.39886C14.33 8.57742 14.1217 8.83121 13.9987 9.12814C13.8757 9.42507 13.8435 9.7518 13.9062 10.067C13.9689 10.3822 14.1237 10.6718 14.351 10.899C14.5782 11.1263 14.8678 11.2811 15.183 11.3438C15.4982 11.4065 15.8249 11.3743 16.1219 11.2513C16.4188 11.1283 16.6726 10.92 16.8511 10.6528C17.0297 10.3856 17.125 10.0714 17.125 9.75C17.125 9.31902 16.9538 8.9057 16.649 8.60095C16.3443 8.2962 15.931 8.125 15.5 8.125Z" fill="#4C539F"/>
</svg>
