<svg width="32" height="32" viewBox="0 0 32 32" fill="none" xmlns="http://www.w3.org/2000/svg">
<path fill-rule="evenodd" clip-rule="evenodd" d="M5 4C3.89543 4 3 4.89543 3 6V26C3 27.1046 3.89543 28 5 28H27C28.1046 28 29 27.1046 29 26V6C29 4.89543 28.1046 4 27 4H5ZM1 6C1 3.79086 2.79086 2 5 2H27C29.2091 2 31 3.79086 31 6V26C31 28.2091 29.2091 30 27 30H5C2.79086 30 1 28.2091 1 26V6Z" fill="#4C539F"/>
<path fill-rule="evenodd" clip-rule="evenodd" d="M5.21917 6.37534C5.56418 5.94408 6.19347 5.87416 6.62473 6.21917L11.6247 10.2192C11.8619 10.4089 12 10.6963 12 11C12 11.3038 11.8619 11.5911 11.6247 11.7809L6.62473 15.7809C6.19347 16.1259 5.56418 16.056 5.21917 15.6247C4.87416 15.1935 4.94408 14.5642 5.37534 14.2192L9.39926 11L5.37534 7.78091C4.94408 7.4359 4.87416 6.8066 5.21917 6.37534ZM11 15C11 14.4478 11.4478 14 12 14H16C16.5523 14 17 14.4478 17 15C17 15.5523 16.5523 16 16 16H12C11.4478 16 11 15.5523 11 15Z" fill="#4C539F"/>
</svg>
