<svg width="32" height="32" viewBox="0 0 32 32" fill="none" xmlns="http://www.w3.org/2000/svg">
<path fill-rule="evenodd" clip-rule="evenodd" d="M4 5C3.44772 5 3 5.44772 3 6V22C3 22.5523 3.44772 23 4 23H28C28.5523 23 29 22.5523 29 22V6C29 5.44772 28.5523 5 28 5H4ZM1 6C1 4.34315 2.34315 3 4 3H28C29.6569 3 31 4.34315 31 6V22C31 23.6569 29.6569 25 28 25H4C2.34315 25 1 23.6569 1 22V6Z" fill="#4C539F"/>
<path fill-rule="evenodd" clip-rule="evenodd" d="M12.5077 23.876C12.5703 23.3755 12.9957 23 13.5 23H18.5C19.0043 23 19.4297 23.3755 19.4923 23.876L19.9923 27.876C20.0279 28.1606 19.9395 28.4468 19.7497 28.6618C19.5599 28.8768 19.2868 29 19 29H13C12.7132 29 12.4402 28.8768 12.2503 28.6618C12.0605 28.4468 11.9722 28.1606 12.0077 27.876L12.5077 23.876ZM14.3828 25L14.1328 27H17.8672L17.6172 25H14.3828Z" fill="#4C539F"/>
<path fill-rule="evenodd" clip-rule="evenodd" d="M8 28C8 27.4477 8.44772 27 9 27H23C23.5523 27 24 27.4477 24 28C24 28.5523 23.5523 29 23 29H9C8.44772 29 8 28.5523 8 28Z" fill="#4C539F"/>
<path d="M2 19V22C2.00148 22.53 2.21267 23.0378 2.58743 23.4126C2.96218 23.7873 3.47002 23.9985 4 24H28C28.53 23.9985 29.0378 23.7873 29.4126 23.4126C29.7873 23.0378 29.9985 22.53 30 22V19H2ZM16 23C15.8022 23 15.6089 22.9414 15.4444 22.8315C15.28 22.7216 15.1518 22.5654 15.0761 22.3827C15.0004 22.2 14.9806 21.9989 15.0192 21.8049C15.0578 21.6109 15.153 21.4327 15.2929 21.2929C15.4327 21.153 15.6109 21.0578 15.8049 21.0192C15.9989 20.9806 16.2 21.0004 16.3827 21.0761C16.5654 21.1518 16.7216 21.28 16.8315 21.4444C16.9414 21.6089 17 21.8022 17 22C17 22.2652 16.8946 22.5196 16.7071 22.7071C16.5196 22.8946 16.2652 23 16 23Z" fill="#4C539F"/>
</svg>
