<svg width="32" height="32" viewBox="0 0 32 32" fill="none" xmlns="http://www.w3.org/2000/svg">
<path fill-rule="evenodd" clip-rule="evenodd" d="M5 9C3.89543 9 3 9.89543 3 11V25C3 26.1046 3.89543 27 5 27H27C28.1046 27 29 26.1046 29 25V11C29 9.89543 28.1046 9 27 9H5ZM1 11C1 8.79086 2.79086 7 5 7H27C29.2091 7 31 8.79086 31 11V25C31 27.2091 29.2091 29 27 29H5C2.79086 29 1 27.2091 1 25V11Z" fill="#4C539F"/>
<path fill-rule="evenodd" clip-rule="evenodd" d="M11 5C10.7348 5 10.4804 5.10536 10.2929 5.29289C10.1054 5.48043 10 5.73478 10 6V8C10 8.55229 9.55229 9 9 9C8.44772 9 8 8.55229 8 8V6C8 5.20435 8.31607 4.44129 8.87868 3.87868C9.44129 3.31607 10.2044 3 11 3H21C21.7957 3 22.5587 3.31607 23.1213 3.87868C23.6839 4.44129 24 5.20435 24 6V8C24 8.55229 23.5523 9 23 9C22.4477 9 22 8.55229 22 8V6C22 5.73478 21.8946 5.48043 21.7071 5.29289C21.5196 5.10536 21.2652 5 21 5H11ZM1 15C1 14.4477 1.44772 14 2 14H30C30.5523 14 31 14.4477 31 15C31 15.5523 30.5523 16 30 16H21V16.5C21 16.8978 20.842 17.2794 20.5607 17.5607C20.2794 17.842 19.8978 18 19.5 18H12.5C12.1022 18 11.7206 17.842 11.4393 17.5607C11.158 17.2794 11 16.8978 11 16.5V16H2C1.44772 16 1 15.5523 1 15Z" fill="#4C539F"/>
</svg>
