<svg width="32" height="32" viewBox="0 0 32 32" fill="none" xmlns="http://www.w3.org/2000/svg">
<path fill-rule="evenodd" clip-rule="evenodd" d="M8 14C6.89543 14 6 14.8954 6 16C6 17.1046 6.89543 18 8 18C9.10457 18 10 17.1046 10 16C10 14.8954 9.10457 14 8 14ZM4 16C4 13.7909 5.79086 12 8 12C10.2091 12 12 13.7909 12 16C12 18.2091 10.2091 20 8 20C5.79086 20 4 18.2091 4 16Z" fill="#4C539F"/>
<path fill-rule="evenodd" clip-rule="evenodd" d="M24 5C22.8954 5 22 5.89543 22 7C22 8.10457 22.8954 9 24 9C25.1046 9 26 8.10457 26 7C26 5.89543 25.1046 5 24 5ZM20 7C20 4.79086 21.7909 3 24 3C26.2091 3 28 4.79086 28 7C28 9.20914 26.2091 11 24 11C21.7909 11 20 9.20914 20 7Z" fill="#4C539F"/>
<path fill-rule="evenodd" clip-rule="evenodd" d="M24 23C22.8954 23 22 23.8954 22 25C22 26.1046 22.8954 27 24 27C25.1046 27 26 26.1046 26 25C26 23.8954 25.1046 23 24 23ZM20 25C20 22.7909 21.7909 21 24 21C26.2091 21 28 22.7909 28 25C28 27.2091 26.2091 29 24 29C21.7909 29 20 27.2091 20 25Z" fill="#4C539F"/>
<path fill-rule="evenodd" clip-rule="evenodd" d="M22.2563 7.98038C22.527 8.46174 22.3563 9.07145 21.875 9.34221L11.1037 15.401C10.6224 15.6717 10.0126 15.501 9.74188 15.0196C9.47112 14.5383 9.64184 13.9286 10.1232 13.6578L20.8945 7.59906C21.3758 7.3283 21.9855 7.49902 22.2563 7.98038ZM9.74188 16.9804C10.0126 16.499 10.6224 16.3283 11.1037 16.5991L21.875 22.6578C22.3563 22.9286 22.527 23.5383 22.2563 24.0196C21.9855 24.501 21.3758 24.6717 20.8945 24.401L10.1232 18.3422C9.64184 18.0715 9.47112 17.4617 9.74188 16.9804Z" fill="#4C539F"/>
</svg>
