<svg width="32" height="32" viewBox="0 0 32 32" fill="none" xmlns="http://www.w3.org/2000/svg">
<path fill-rule="evenodd" clip-rule="evenodd" d="M11 2C9.89543 2 9 2.89543 9 4V28C9 29.1046 9.89543 30 11 30H21C22.1046 30 23 29.1046 23 28V4C23 2.89543 22.1046 2 21 2H11ZM7 4C7 1.79086 8.79086 0 11 0H21C23.2091 0 25 1.79086 25 4V28C25 30.2091 23.2091 32 21 32H11C8.79086 32 7 30.2091 7 28V4Z" fill="#4C539F"/>
<path fill-rule="evenodd" clip-rule="evenodd" d="M10 1C10 0.447715 10.4477 0 11 0H12.5C12.8978 0 13.2794 0.158035 13.5607 0.43934C13.842 0.720646 14 1.10218 14 1.5H18C18 1.10218 18.158 0.720646 18.4393 0.43934C18.7206 0.158035 19.1022 0 19.5 0H21C21.5523 0 22 0.447715 22 1C22 1.55228 21.5523 2 21 2H19.9365C19.8479 2.34301 19.669 2.65944 19.4142 2.91421C19.0391 3.28929 18.5304 3.5 18 3.5H14C13.4696 3.5 12.9609 3.28929 12.5858 2.91421C12.331 2.65944 12.1521 2.34301 12.0635 2H11C10.4477 2 10 1.55228 10 1Z" fill="#4C539F"/>
</svg>
