<svg width="36" height="37" viewBox="0 0 36 37" fill="none" xmlns="http://www.w3.org/2000/svg">
<g id="Instagram">
<path id="Vector" d="M25.2754 0.5H10.7246C4.81103 0.5 0 5.31103 0 11.2246V25.7754C0 31.689 4.81103 36.5 10.7246 36.5H25.2754C31.189 36.5 36 31.689 36 25.7754V11.2246C35.9999 5.31103 31.1889 0.5 25.2754 0.5ZM32.3784 25.7754C32.3784 29.6982 29.1982 32.8784 25.2754 32.8784H10.7246C6.80175 32.8784 3.6216 29.6982 3.6216 25.7754V11.2246C3.6216 7.30169 6.80175 4.1216 10.7246 4.1216H25.2754C29.1982 4.1216 32.3784 7.30169 32.3784 11.2246V25.7754Z" fill="url(#paint0_linear_6_3753)"/>
<path id="Vector_2" d="M18.0003 9.18909C12.8663 9.18909 8.68945 13.3659 8.68945 18.4999C8.68945 23.6339 12.8663 27.8108 18.0003 27.8108C23.1344 27.8108 27.3112 23.6339 27.3112 18.4999C27.3112 13.3659 23.1344 9.18909 18.0003 9.18909ZM18.0003 24.1892C14.8582 24.1892 12.3111 21.6421 12.3111 18.5C12.3111 15.3578 14.8583 12.8107 18.0003 12.8107C21.1425 12.8107 23.6896 15.3578 23.6896 18.5C23.6896 21.642 21.1424 24.1892 18.0003 24.1892Z" fill="url(#paint1_linear_6_3753)"/>
<path id="Vector_3" d="M27.3287 11.4902C28.5609 11.4902 29.5598 10.4913 29.5598 9.25916C29.5598 8.02696 28.5609 7.02808 27.3287 7.02808C26.0965 7.02808 25.0977 8.02696 25.0977 9.25916C25.0977 10.4913 26.0965 11.4902 27.3287 11.4902Z" fill="url(#paint2_linear_6_3753)"/>
</g>
<defs>
<linearGradient id="paint0_linear_6_3753" x1="18" y1="36.3952" x2="18" y2="0.779618" gradientUnits="userSpaceOnUse">
<stop stop-color="#E09B3D"/>
<stop offset="0.3" stop-color="#C74C4D"/>
<stop offset="0.6" stop-color="#C21975"/>
<stop offset="1" stop-color="#7024C4"/>
</linearGradient>
<linearGradient id="paint1_linear_6_3753" x1="18.0003" y1="36.3952" x2="18.0003" y2="0.779589" gradientUnits="userSpaceOnUse">
<stop stop-color="#E09B3D"/>
<stop offset="0.3" stop-color="#C74C4D"/>
<stop offset="0.6" stop-color="#C21975"/>
<stop offset="1" stop-color="#7024C4"/>
</linearGradient>
<linearGradient id="paint2_linear_6_3753" x1="27.3287" y1="36.3953" x2="27.3287" y2="0.779751" gradientUnits="userSpaceOnUse">
<stop stop-color="#E09B3D"/>
<stop offset="0.3" stop-color="#C74C4D"/>
<stop offset="0.6" stop-color="#C21975"/>
<stop offset="1" stop-color="#7024C4"/>
</linearGradient>
</defs>
</svg>
