<svg width="36" height="37" viewBox="0 0 36 37" fill="none" xmlns="http://www.w3.org/2000/svg">
<g id="react-icons/io5/IoCall">
<path id="Vector" d="M27.4921 34.25C26.1196 34.25 24.1917 33.7536 21.3046 32.1406C17.7939 30.1719 15.0784 28.3543 11.5867 24.8717C8.22016 21.5073 6.58188 19.329 4.28899 15.1567C1.69868 10.4457 2.14024 7.97635 2.63384 6.92096C3.22165 5.65955 4.08931 4.9051 5.21079 4.15627C5.84779 3.73892 6.52189 3.38116 7.22454 3.08752C7.29485 3.05728 7.36024 3.02846 7.4186 3.00244C7.76665 2.84564 8.29399 2.60869 8.96196 2.86182C9.40774 3.02916 9.80571 3.37158 10.4287 3.98682C11.7063 5.24682 13.4521 8.05299 14.0962 9.43111C14.5286 10.3599 14.8148 10.9731 14.8155 11.6607C14.8155 12.4658 14.4105 13.0867 13.919 13.7567C13.8269 13.8826 13.7355 14.0028 13.6469 14.1195C13.1118 14.8227 12.9944 15.0259 13.0717 15.3887C13.2285 16.1178 14.3978 18.2884 16.3195 20.2058C18.2411 22.1232 20.3491 23.2187 21.081 23.3748C21.4593 23.4556 21.6667 23.3333 22.3924 22.7792C22.4964 22.6998 22.6033 22.6175 22.7151 22.5353C23.4646 21.9777 24.0567 21.5832 24.8427 21.5832H24.847C25.5311 21.5832 26.1168 21.8799 27.0871 22.3693C28.3527 23.0078 31.2433 24.7311 32.511 26.0101C33.1277 26.6317 33.4715 27.0282 33.6395 27.4733C33.8927 28.1434 33.6543 28.6686 33.4989 29.0202C33.4729 29.0785 33.4441 29.1425 33.4138 29.2135C33.1179 29.9149 32.758 30.5876 32.3388 31.2231C31.5913 32.341 30.8341 33.2066 29.5699 33.7951C28.9207 34.1022 28.2102 34.2577 27.4921 34.25Z" fill="#4C539F"/>
</g>
</svg>
