<svg width="36" height="37" viewBox="0 0 36 37" fill="none" xmlns="http://www.w3.org/2000/svg">
<g id="react-icons/io5/IoMailSharp">
<path id="Vector" d="M32.625 6.125H3.375C3.07663 6.125 2.79048 6.24353 2.5795 6.45451C2.36853 6.66548 2.25 6.95163 2.25 7.25V29.75C2.25 30.0484 2.36853 30.3345 2.5795 30.5455C2.79048 30.7565 3.07663 30.875 3.375 30.875H32.625C32.9234 30.875 33.2095 30.7565 33.4205 30.5455C33.6315 30.3345 33.75 30.0484 33.75 29.75V7.25C33.75 6.95163 33.6315 6.66548 33.4205 6.45451C33.2095 6.24353 32.9234 6.125 32.625 6.125ZM18.6905 20.513C18.493 20.6665 18.2501 20.7499 18 20.7499C17.7499 20.7499 17.507 20.6665 17.3095 20.513L6.29648 11.9476L7.67742 10.1715L18 18.1998L28.3226 10.1715L29.7035 11.9476L18.6905 20.513Z" fill="#4C539F"/>
</g>
</svg>
