<svg width="48" height="49" viewBox="0 0 48 49" fill="none" xmlns="http://www.w3.org/2000/svg">
<g id="linkedin-Icon">
<path id="Shape" d="M15.163 40.5H8.52858V19.1352H15.163V40.5ZM11.8422 16.2209C9.72075 16.2209 8 14.4637 8 12.3422C8 10.2202 9.72022 8.5 11.8422 8.5C13.9642 8.5 15.6845 10.2202 15.6845 12.3422C15.6845 14.4637 13.963 16.2209 11.8422 16.2209ZM39.9936 40.5H33.3734V30.0998C33.3734 27.6211 33.3234 24.4425 29.9241 24.4425C26.4747 24.4425 25.9461 27.1354 25.9461 29.9212V40.5H19.3188V19.1352H25.6818V22.0496H25.7747C26.6604 20.371 28.824 18.5995 32.052 18.5995C38.7664 18.5995 40.0007 23.021 40.0007 28.764V40.5H39.9936Z" fill="#0077B5"/>
</g>
</svg>
