<svg width="37" height="37" viewBox="0 0 37 37" fill="none" xmlns="http://www.w3.org/2000/svg">
<path d="M1.625 33.25V2.875C1.625 2.25368 2.12868 1.75 2.75 1.75C3.37132 1.75 3.875 2.25368 3.875 2.875V33.25H34.25C34.8713 33.25 35.375 33.7537 35.375 34.375C35.375 34.9963 34.8713 35.5 34.25 35.5H3.875C3.27827 35.5 2.70614 35.2628 2.28418 34.8408C1.86222 34.4189 1.625 33.8467 1.625 33.25Z" fill="#4C539F"/>
<path d="M11.75 17.7812C11.75 17.6259 11.6241 17.5 11.4688 17.5H8.65625C8.50092 17.5 8.375 17.6259 8.375 17.7812V28.4688C8.375 28.6241 8.50092 28.75 8.65625 28.75H11.4688C11.6241 28.75 11.75 28.6241 11.75 28.4688V17.7812ZM14 28.4688C14 29.8667 12.8667 31 11.4688 31H8.65625C7.25828 31 6.125 29.8667 6.125 28.4688V17.7812C6.125 16.3833 7.25828 15.25 8.65625 15.25H11.4688C12.8667 15.25 14 16.3833 14 17.7812V28.4688Z" fill="#4C539F"/>
<path d="M21.875 14.4062C21.875 14.2509 21.7491 14.125 21.5938 14.125H18.7812C18.6259 14.125 18.5 14.2509 18.5 14.4062V28.4688C18.5 28.6241 18.6259 28.75 18.7812 28.75H21.5938C21.7491 28.75 21.875 28.6241 21.875 28.4688V14.4062ZM24.125 28.4688C24.125 29.8667 22.9917 31 21.5938 31H18.7812C17.3833 31 16.25 29.8667 16.25 28.4688V14.4062C16.25 13.0083 17.3833 11.875 18.7812 11.875H21.5938C22.9917 11.875 24.125 13.0083 24.125 14.4062V28.4688Z" fill="#4C539F"/>
<path d="M31.9746 9.90625C31.9746 9.75092 31.8487 9.625 31.6934 9.625H28.8809C28.7255 9.625 28.5996 9.75092 28.5996 9.90625V28.4688C28.5996 28.6241 28.7255 28.75 28.8809 28.75H31.6934C31.8487 28.75 31.9746 28.6241 31.9746 28.4688V9.90625ZM34.2246 28.4688C34.2246 29.8667 33.0913 31 31.6934 31H28.8809C27.4829 31 26.3496 29.8667 26.3496 28.4688V9.90625C26.3496 8.50828 27.4829 7.375 28.8809 7.375H31.6934C33.0913 7.375 34.2246 8.50828 34.2246 9.90625V28.4688Z" fill="#4C539F"/>
</svg>
