<svg width="37" height="37" viewBox="0 0 37 37" fill="none" xmlns="http://www.w3.org/2000/svg">
<path d="M20.75 33.25C21.3713 33.25 21.875 33.7537 21.875 34.375C21.875 34.9964 21.3714 35.5 20.75 35.5H16.25C15.6287 35.5 15.125 34.9964 15.125 34.375C15.1251 33.7538 15.6287 33.2501 16.25 33.25H20.75ZM21.875 29.875C22.4963 29.875 23 30.3787 23 31C23 31.6214 22.4964 32.125 21.875 32.125H15.125C14.5037 32.125 14 31.6214 14 31C14.0001 30.3788 14.5037 29.8751 15.125 29.875H21.875ZM17.375 27.625V18.625C17.3751 18.0038 17.8787 17.5001 18.5 17.5C19.1213 17.5 19.625 18.0037 19.625 18.625V27.625C19.625 28.2464 19.1214 28.75 18.5 28.75C17.8787 28.75 17.375 28.2464 17.375 27.625ZM20.75 27.625V25.9375C20.7501 24.524 21.507 23.2778 22.2881 22.3106C23.0806 21.3294 24.0688 20.4357 24.7535 19.7808L25.0786 19.4541C26.6565 17.7839 27.5 15.5986 27.5 13C27.5 7.995 23.5213 4.00004 18.5 4.00004H18.4971C17.3148 3.99675 16.1433 4.22735 15.0503 4.67827C13.9573 5.12923 12.9641 5.79188 12.128 6.62797C11.2919 7.46407 10.6292 8.4573 10.1783 9.55034C9.72734 10.6433 9.49674 11.8148 9.50004 12.9971V13L9.51175 13.4981C9.629 15.9749 10.6175 18.2441 12.2408 19.7764L13.4331 20.9073C13.865 21.3326 14.3113 21.8009 14.709 22.293C15.4931 23.2632 16.25 24.5151 16.25 25.9375V27.625C16.25 28.2464 15.7464 28.75 15.125 28.75C14.5037 28.75 14 28.2464 14 27.625V25.9375C14 25.3001 13.6447 24.5555 12.9585 23.7066C12.6212 23.2892 12.2418 22.8925 11.854 22.5113L10.6968 21.4126C8.60351 19.4367 7.4061 16.5968 7.26468 13.6006L7.25004 13C7.24633 11.5222 7.53453 10.0581 8.09818 8.69194C8.66224 7.32478 9.49137 6.08292 10.5371 5.03715C11.5829 3.99138 12.8248 3.16225 14.1919 2.59819C15.559 2.03416 17.0241 1.74595 18.503 1.75004L18.5015 1.75151C24.7675 1.75227 29.75 6.75559 29.75 13C29.75 16.1225 28.7195 18.8732 26.7207 20.9922L26.3091 21.4068C25.5552 22.1279 24.7145 22.8873 24.0386 23.7242C23.3516 24.5749 23.0001 25.3123 23 25.9375V27.625C23 28.2464 22.4964 28.75 21.875 28.75C21.2537 28.75 20.75 28.2464 20.75 27.625Z" fill="#4C539F"/>
<path d="M20.5962 16.5332C21.0857 16.2409 21.7266 16.3617 22.0742 16.8291C22.4217 17.2964 22.3527 17.9443 21.9321 18.3291L21.8428 18.4023V18.4038H21.8413L21.8398 18.4053C21.8383 18.4064 21.8362 18.408 21.834 18.4097C21.8293 18.4131 21.8225 18.4174 21.8149 18.4228C21.7997 18.4338 21.7795 18.4499 21.7534 18.4682C21.7013 18.505 21.6273 18.5549 21.5366 18.6147C21.3564 18.7336 21.102 18.8925 20.8042 19.0527C20.2551 19.348 19.3762 19.75 18.5 19.75C17.6237 19.75 16.7448 19.348 16.1958 19.0527C15.898 18.8925 15.6436 18.7336 15.4634 18.6147C15.3726 18.5549 15.2987 18.505 15.2466 18.4682C15.2205 18.4499 15.2002 18.4338 15.185 18.4228C15.1775 18.4174 15.1707 18.4131 15.166 18.4097C15.1638 18.408 15.1617 18.4064 15.1601 18.4053L15.1587 18.4038H15.1572V18.4023L15.0679 18.3291C14.6472 17.9443 14.5783 17.2964 14.9258 16.8291C15.2965 16.3306 16.0005 16.227 16.499 16.5976V16.5962C16.5001 16.597 16.5026 16.5993 16.5063 16.602C16.5139 16.6075 16.5271 16.6162 16.5444 16.6284C16.5796 16.6532 16.6336 16.6913 16.7026 16.7368C16.842 16.8287 17.0376 16.9515 17.2622 17.0722C17.7591 17.3394 18.2169 17.5 18.5 17.5C18.7831 17.5 19.2409 17.3394 19.7378 17.0722C19.9623 16.9515 20.158 16.8287 20.2973 16.7368C20.3664 16.6913 20.4204 16.6532 20.4556 16.6284C20.4728 16.6162 20.4861 16.6075 20.4936 16.602L20.501 16.5962V16.5976L20.5962 16.5332Z" fill="#4C539F"/>
</svg>
