<svg width="37" height="37" viewBox="0 0 37 37" fill="none" xmlns="http://www.w3.org/2000/svg">
<path d="M11.1128 7.25217C11.1395 6.71882 11.2588 6.19294 11.4658 5.69943C11.7024 5.13574 12.0493 4.625 12.4854 4.1965C12.9218 3.76777 13.4405 3.42996 14.0088 3.20334C14.5769 2.97683 15.1843 2.86447 15.7959 2.87522L16.0332 2.88547C18.4639 3.05268 20.3206 5.12031 20.3208 7.53928V8.50022H24.7681L25.1489 8.51926C26.0319 8.60695 26.8626 8.99665 27.4956 9.62961C28.2189 10.3529 28.6249 11.3342 28.625 12.3571V16.8044H29.5859C32.0552 16.8047 34.2497 18.7194 34.25 21.3484C34.25 23.8949 32.2314 26.0183 29.6431 26.0183H28.625V30.5183C28.6248 31.5411 28.2189 32.5226 27.4956 33.2458C26.8627 33.8787 26.0319 34.2685 25.1489 34.3562L24.7681 34.3752H19.7656C19.43 34.3752 19.108 34.2419 18.8706 34.0046C18.6333 33.7673 18.5 33.4452 18.5 33.1096V31.1613C18.5 29.9127 17.4297 28.8522 15.9453 28.7561L15.6436 28.7502C14.1464 28.7854 12.8752 30.1006 12.875 31.6374V33.1096C12.875 33.4452 12.7417 33.7673 12.5044 34.0046C12.267 34.2419 11.945 34.3752 11.6094 34.3752H6.65674C5.62167 34.3719 4.63038 33.9587 3.89844 33.2268C3.16634 32.4947 2.75312 31.5024 2.75 30.467V25.5158C2.75 25.1802 2.8833 24.8582 3.12061 24.6208L3.21289 24.5373C3.43822 24.3524 3.72162 24.2502 4.01562 24.2502H5.96387C7.26503 24.2502 8.45089 23.0868 8.57568 21.6604L8.58594 21.3718C8.56481 19.8816 7.31778 18.6255 5.9082 18.6252H4.01562C3.68 18.6252 3.35795 18.4919 3.12061 18.2546C2.88329 18.0173 2.75004 17.6952 2.75 17.3596V12.407L2.77051 12.0217C2.86159 11.1282 3.25789 10.2892 3.89844 9.64865C4.63039 8.9167 5.62163 8.50351 6.65674 8.50022H11.1069V7.48215L11.1128 7.25217ZM13.3569 9.48459C13.3569 9.82019 13.2236 10.1423 12.9863 10.3796C12.749 10.6168 12.4268 10.7502 12.0913 10.7502H6.66406L6.5 10.759C6.11942 10.7978 5.76211 10.9666 5.48926 11.2395C5.1775 11.5513 5.00133 11.9734 5 12.4143V16.3752H5.9082C8.62818 16.3755 10.7991 18.7017 10.8359 21.341L10.833 21.5886C10.7404 24.1416 8.67644 26.5002 5.96387 26.5002H5V30.4612L5.00879 30.6252C5.04759 31.0057 5.21644 31.3631 5.48926 31.636C5.80103 31.9477 6.22318 32.1239 6.66406 32.1252H10.625V31.6374C10.6252 28.9165 12.8343 26.5664 15.5908 26.5017L16.0771 26.5119C18.4959 26.675 20.75 28.4591 20.75 31.1613V32.1252H24.7681L24.9263 32.1179C25.2943 32.0814 25.641 31.9188 25.9048 31.655C26.2061 31.3537 26.3748 30.9444 26.375 30.5183V25.0339C26.375 24.6984 26.5084 24.3762 26.7456 24.1389L26.8379 24.0539C27.0631 23.8693 27.3468 23.7683 27.6406 23.7683H29.6431C30.9402 23.7683 32 22.7013 32 21.3484C31.9997 20.0786 30.9324 19.0547 29.5859 19.0544H27.6406C27.3051 19.0544 26.9829 18.921 26.7456 18.6838C26.5084 18.4466 26.3751 18.1243 26.375 17.7888V12.3571C26.3749 11.931 26.2061 11.5218 25.9048 11.2204C25.641 10.9566 25.2943 10.794 24.9263 10.7575L24.7681 10.7502H19.3364C19.0009 10.7501 18.6787 10.6169 18.4414 10.3796C18.2041 10.1423 18.0708 9.82016 18.0708 9.48459V7.53928C18.0707 6.3027 17.1534 5.28222 15.9922 5.14133L15.7563 5.12522C15.4437 5.11972 15.1328 5.17647 14.8423 5.29221C14.5517 5.40811 14.2862 5.58129 14.063 5.80051C13.8397 6.01988 13.6626 6.28236 13.5415 6.57102C13.4204 6.85962 13.357 7.16918 13.3569 7.48215V9.48459Z" fill="#4C539F"/>
</svg>
