<svg width="37" height="37" viewBox="0 0 37 37" fill="none" xmlns="http://www.w3.org/2000/svg">
<path d="M17.375 28.75V2.87502L17.3838 2.73293C17.4254 2.40571 17.6093 2.10991 17.8906 1.92873C18.2122 1.72165 18.6176 1.69282 18.9658 1.8511L31.3408 7.4761C31.7422 7.65872 32 8.05898 32 8.50002C32 8.94106 31.7422 9.34132 31.3408 9.52395L19.625 14.8487V28.75C19.625 29.3713 19.1213 29.875 18.5 29.875C17.8787 29.875 17.375 29.3713 17.375 28.75ZM19.625 12.3775L28.1562 8.50002L19.625 4.62112V12.3775Z" fill="#4C539F"/>
<path d="M18.4998 23.125C24.6474 23.125 31.3413 26.0942 32.9402 32.1997L33.0779 32.8003L33.1145 33.0391C33.1697 33.5999 33.0272 34.1739 32.6736 34.6387C32.2571 35.1858 31.608 35.5 30.8748 35.5H6.12477C5.39148 35.5 4.74217 35.1858 4.32594 34.6387C3.92214 34.1077 3.7948 33.4341 3.92164 32.8003L4.0608 32.1997C5.6591 26.0942 12.3523 23.1251 18.4998 23.125ZM18.4998 25.375C12.7953 25.3751 7.46529 28.1071 6.23463 32.7827L6.1277 33.2412C6.12714 33.244 6.12811 33.2474 6.1277 33.25H30.8718C30.8715 33.2477 30.8723 33.2451 30.8718 33.2427L30.7664 32.7827C29.5351 28.1069 24.2042 25.375 18.4998 25.375Z" fill="#4C539F"/>
</svg>
