<svg width="24" height="24" viewBox="0 0 24 24" fill="none" xmlns="http://www.w3.org/2000/svg">
<path fill-rule="evenodd" clip-rule="evenodd" d="M12 12C9.51472 12 7.5 14.0147 7.5 16.5C7.5 18.9853 9.51472 21 12 21C14.4853 21 16.5 18.9853 16.5 16.5C16.5 14.0147 14.4853 12 12 12ZM6 16.5C6 13.1863 8.68629 10.5 12 10.5C15.3137 10.5 18 13.1863 18 16.5C18 19.8137 15.3137 22.5 12 22.5C8.68629 22.5 6 19.8137 6 16.5Z" fill="#4C539F"/>
<path fill-rule="evenodd" clip-rule="evenodd" d="M12 15C11.1716 15 10.5 15.6716 10.5 16.5C10.5 17.3284 11.1716 18 12 18C12.8284 18 13.5 17.3284 13.5 16.5C13.5 15.6716 12.8284 15 12 15ZM9 16.5C9 14.8431 10.3431 13.5 12 13.5C13.6569 13.5 15 14.8431 15 16.5C15 18.1569 13.6569 19.5 12 19.5C10.3431 19.5 9 18.1569 9 16.5Z" fill="#4C539F"/>
<path fill-rule="evenodd" clip-rule="evenodd" d="M4.67745 3C4.53804 2.99997 4.40138 3.03879 4.28281 3.11211C4.16424 3.18543 4.06845 3.29034 4.0062 3.41508L2.71374 6H6.5758C6.58395 5.99987 6.59209 5.99987 6.60023 6H16.9969L18.8775 3H4.67745ZM20.1688 3.76421L14.9328 12.1171C14.7128 12.4681 14.2499 12.5742 13.899 12.3542C13.548 12.1342 13.4418 11.6714 13.6618 11.3204L16.0567 7.5H7.94408L10.339 11.3204C10.559 11.6713 10.4529 12.1342 10.1019 12.3542C9.75098 12.5742 9.28812 12.4681 9.06811 12.1171L6.1737 7.5H2.87362L7.52206 14.7352C7.74596 15.0837 7.64495 15.5477 7.29647 15.7716C6.94798 15.9955 6.48397 15.8945 6.26008 15.546L1.33072 7.87356C1.33072 7.87355 1.33073 7.87357 1.33072 7.87356C1.11979 7.54527 0.997836 7.16773 0.97688 6.77809C0.955924 6.38843 1.03667 6.00002 1.21119 5.651C1.21118 5.651 1.21119 5.65099 1.21119 5.651L2.66407 2.74523C2.85084 2.37124 3.13835 2.05618 3.49391 1.83632C3.84956 1.61639 4.25947 1.49993 4.67763 1.5C4.67757 1.5 4.67769 1.5 4.67763 1.5H19.3233C19.7411 1.50003 20.1507 1.6164 20.5061 1.83609C20.8616 2.05578 21.1488 2.37009 21.3356 2.74381M21.3356 2.74381L22.7888 5.65004C22.7888 5.65004 22.7888 5.65005 22.7888 5.65004C22.9633 5.99907 23.044 6.38749 23.0231 6.77715C23.0021 7.16676 22.8802 7.54423 22.6693 7.87249C22.6693 7.87254 22.6693 7.87245 22.6693 7.87249L17.7409 15.5459C17.517 15.8945 17.053 15.9955 16.7045 15.7717C16.356 15.5478 16.2549 15.0838 16.4788 14.7353L21.4072 7.06188C21.4775 6.95245 21.5182 6.82648 21.5252 6.6966C21.5322 6.56671 21.5053 6.43724 21.4471 6.32089L20.1688 3.76421M20.6632 3.08004L20.5677 3.12775L20.6632 3.08004Z" fill="#4C539F"/>
</svg>
