<svg width="24" height="24" viewBox="0 0 24 24" fill="none" xmlns="http://www.w3.org/2000/svg">
<path fill-rule="evenodd" clip-rule="evenodd" d="M12 2.25C9.1005 2.25 6.75 4.6005 6.75 7.5C6.75 10.3995 9.1005 12.75 12 12.75C14.8995 12.75 17.25 10.3995 17.25 7.5C17.25 4.6005 14.8995 2.25 12 2.25ZM5.25 7.5C5.25 3.77208 8.27208 0.75 12 0.75C15.7279 0.75 18.75 3.77208 18.75 7.5C18.75 11.2279 15.7279 14.25 12 14.25C8.27208 14.25 5.25 11.2279 5.25 7.5Z" fill="#4C539F"/>
<path fill-rule="evenodd" clip-rule="evenodd" d="M7.09781 10.0235C7.4599 10.2246 7.59037 10.6812 7.38922 11.0433L3.52804 17.9938L6.31777 17.9804C6.31772 17.9804 6.31783 17.9804 6.31777 17.9804C6.57862 17.9791 6.83546 18.0458 7.06263 18.174C7.28985 18.3023 7.47969 18.4876 7.6134 18.7116L8.91011 20.8854L12.4577 13.0809C12.6291 12.7038 13.0737 12.5371 13.4508 12.7085C13.8279 12.8799 13.9946 13.3246 13.8232 13.7016L9.68277 22.8104C9.56729 23.0644 9.32032 23.2334 9.04169 23.2489C8.76306 23.2644 8.49886 23.1239 8.3559 22.8843L6.32535 19.4803L2.25363 19.5C1.98725 19.5013 1.74017 19.3612 1.60452 19.1319C1.46888 18.9027 1.46501 18.6187 1.59437 18.3858L6.07797 10.3149C6.27912 9.95278 6.73572 9.82231 7.09781 10.0235Z" fill="#4C539F"/>
<path fill-rule="evenodd" clip-rule="evenodd" d="M16.8184 9.84377C17.1808 9.64311 17.6372 9.7742 17.8379 10.1366L22.4063 18.3866C22.5353 18.6194 22.5311 18.9032 22.3954 19.1322C22.2597 19.3613 22.0128 19.5012 21.7466 19.4999L17.675 19.4802L15.6443 22.8841C15.5013 23.1238 15.2371 23.2642 14.9585 23.2487C14.6799 23.2332 14.4329 23.0643 14.3174 22.8102L11.3174 16.2102C11.146 15.8332 11.3127 15.3885 11.6898 15.2171C12.0669 15.0457 12.5116 15.2125 12.683 15.5895L15.0901 20.8852L16.3867 18.7116C16.5204 18.4876 16.7103 18.3021 16.9376 18.1739C17.1647 18.0457 17.4214 17.9789 17.6822 17.9802C17.6822 17.9802 17.6823 17.9802 17.6822 17.9802L20.4741 17.9937L16.5256 10.8632C16.325 10.5009 16.4561 10.0444 16.8184 9.84377Z" fill="#4C539F"/>
<path fill-rule="evenodd" clip-rule="evenodd" d="M12 5.25C10.7574 5.25 9.75 6.25736 9.75 7.5C9.75 8.74264 10.7574 9.75 12 9.75C13.2426 9.75 14.25 8.74264 14.25 7.5C14.25 6.25736 13.2426 5.25 12 5.25ZM8.25 7.5C8.25 5.42893 9.92893 3.75 12 3.75C14.0711 3.75 15.75 5.42893 15.75 7.5C15.75 9.57107 14.0711 11.25 12 11.25C9.92893 11.25 8.25 9.57107 8.25 7.5Z" fill="#4C539F"/>
</svg>
