<svg width="24" height="24" viewBox="0 0 24 24" fill="none" xmlns="http://www.w3.org/2000/svg">
<path fill-rule="evenodd" clip-rule="evenodd" d="M16.2409 7.68295C16.554 7.95405 16.5882 8.42769 16.3171 8.74087L11.1233 14.7409C10.9879 14.8973 10.7938 14.9909 10.5871 14.9994C10.3803 15.0079 10.1792 14.9306 10.0314 14.7858L7.72514 12.5264C7.42926 12.2365 7.42438 11.7617 7.71425 11.4658C8.00412 11.1699 8.47897 11.165 8.77486 11.4549L10.5113 13.156L15.1829 7.75915C15.454 7.44597 15.9277 7.41186 16.2409 7.68295Z" fill="#4C539F"/>
<path fill-rule="evenodd" clip-rule="evenodd" d="M11.6915 1.56647C11.8878 1.47784 12.1127 1.47784 12.3089 1.56647C16.0377 3.25047 17.7116 3.7885 21.8405 4.52913C22.1804 4.59011 22.4348 4.8754 22.4565 5.22012C23.2492 17.7832 13.0538 22.1342 12.2804 22.4457C12.1006 22.5181 11.8998 22.5181 11.72 22.4457C10.9467 22.1342 0.751238 17.7832 1.54389 5.22012C1.56564 4.8754 1.82001 4.59011 2.15999 4.52913C6.28884 3.7885 7.96271 3.25047 11.6915 1.56647ZM3.01236 5.89841C2.65873 16.1309 10.3287 20.1754 12.0002 20.9334C13.6717 20.1754 21.3417 16.1309 20.9881 5.89841C17.2569 5.20575 15.4522 4.61914 12.0002 3.07241C8.54825 4.61914 6.74353 5.20575 3.01236 5.89841Z" fill="#4C539F"/>
</svg>
